<svg xmlns="http://www.w3.org/2000/svg" viewBox="0 0 64 64">
  <defs>
    <linearGradient id="moveGrad" x1="0" y1="0" x2="1" y2="1">
      <stop offset="0%" stop-color="#66BB6A"/>
      <stop offset="100%" stop-color="#2E7D32"/>
    </linearGradient>
  </defs>
  <circle cx="32" cy="32" r="28" fill="url(#moveGrad)" stroke="#1B5E20" stroke-width="2"/>
  <!-- Up arrow -->
  <polygon points="32,8 28,18 30,18 30,28 34,28 34,18 36,18" fill="white"/>
  <!-- Down arrow -->
  <polygon points="32,56 28,46 30,46 30,36 34,36 34,46 36,46" fill="white"/>
  <!-- Left arrow -->
  <polygon points="8,32 18,28 18,30 28,30 28,34 18,34 18,36" fill="white"/>
  <!-- Right arrow -->
  <polygon points="56,32 46,28 46,30 36,30 36,34 46,34 46,36" fill="white"/>
  <!-- Center dot -->
  <circle cx="32" cy="32" r="4" fill="white"/>
</svg>
