<svg xmlns="http://www.w3.org/2000/svg" viewBox="0 0 1920 1080">
  <defs>
    <linearGradient id="waterGrad" x1="0" y1="0" x2="0" y2="1">
      <stop offset="0%" stop-color="#81D4FA"/>
      <stop offset="40%" stop-color="#4FC3F7"/>
      <stop offset="80%" stop-color="#0288D1"/>
      <stop offset="100%" stop-color="#01579B"/>
    </linearGradient>
    <linearGradient id="sandGrad" x1="0" y1="0" x2="0" y2="1">
      <stop offset="0%" stop-color="#D7CCC8"/>
      <stop offset="100%" stop-color="#BCAAA4"/>
    </linearGradient>
    <linearGradient id="lightRay" x1="0" y1="0" x2="0" y2="1">
      <stop offset="0%" stop-color="white" stop-opacity="0.08"/>
      <stop offset="100%" stop-color="white" stop-opacity="0"/>
    </linearGradient>
  </defs>
  <rect width="1920" height="1080" fill="url(#waterGrad)"/>
  <rect x="0" y="960" width="1920" height="120" fill="url(#sandGrad)"/>
  <path d="M 0,960 Q 200,950 400,960 Q 600,970 800,960 Q 1000,950 1200,960 Q 1400,970 1600,960 Q 1800,950 1920,960 L 1920,1080 L 0,1080 Z" fill="#A1887F" opacity="0.5"/>
  <polygon points="200,0 280,600 120,600" fill="url(#lightRay)"/>
  <polygon points="600,0 710,700 490,700" fill="url(#lightRay)"/>
  <polygon points="1100,0 1200,500 1000,500" fill="url(#lightRay)"/>
  <polygon points="1500,0 1580,650 1420,650" fill="url(#lightRay)"/>
  <circle cx="300" cy="200" r="3" fill="white" opacity="0.15"/>
  <circle cx="320" cy="180" r="2" fill="white" opacity="0.12"/>
  <circle cx="800" cy="300" r="2.5" fill="white" opacity="0.1"/>
  <circle cx="815" cy="285" r="1.5" fill="white" opacity="0.08"/>
  <circle cx="1200" cy="150" r="2" fill="white" opacity="0.12"/>
  <circle cx="1215" cy="140" r="3" fill="white" opacity="0.1"/>
  <circle cx="1600" cy="250" r="2" fill="white" opacity="0.1"/>
  <circle cx="1615" cy="240" r="1.5" fill="white" opacity="0.08"/>
  <circle cx="500" cy="400" r="1.5" fill="white" opacity="0.08"/>
  <circle cx="1000" cy="450" r="2" fill="white" opacity="0.06"/>
  <circle cx="1400" cy="350" r="1.5" fill="white" opacity="0.07"/>
</svg>
