<svg xmlns="http://www.w3.org/2000/svg" viewBox="0 0 160 60">
  <defs>
    <linearGradient id="bodyGrad" x1="0" y1="0" x2="0" y2="1">
      <stop offset="0%" stop-color="#C8E6C9"/>
      <stop offset="40%" stop-color="#81C784"/>
      <stop offset="100%" stop-color="#388E3C"/>
    </linearGradient>
  </defs>
  <polygon points="12,30 2,10 2,50" fill="#4CAF50"/>
  <ellipse cx="82" cy="30" rx="62" ry="11" fill="url(#bodyGrad)"/>
  <ellipse cx="132" cy="30" rx="16" ry="9" fill="#66BB6A"/>
  <path d="M 50,19 Q 72,6 92,19" fill="#4CAF50"/>
  <path d="M 120,36 Q 126,48 132,38" fill="#4CAF50"/>
  <path d="M 142,34 Q 150,44 155,40" fill="none" stroke="#4CAF50" stroke-width="1.2"/>
  <path d="M 142,37 Q 150,47 155,43" fill="none" stroke="#4CAF50" stroke-width="1.2"/>
  <circle cx="137" cy="24" r="4.5" fill="white"/>
  <circle cx="138" cy="24" r="2.2" fill="#1a1a1a"/>
  <circle cx="138.5" cy="23.5" r="1" fill="white"/>
  <path d="M 40,30 Q 50,26 60,30" fill="none" stroke="#388E3C" stroke-width="0.7" opacity="0.4"/>
  <path d="M 60,30 Q 70,26 80,30" fill="none" stroke="#388E3C" stroke-width="0.7" opacity="0.4"/>
  <path d="M 80,30 Q 90,26 100,30" fill="none" stroke="#388E3C" stroke-width="0.7" opacity="0.4"/>
  <path d="M 100,30 Q 110,26 120,30" fill="none" stroke="#388E3C" stroke-width="0.7" opacity="0.4"/>
</svg>
